<svg xmlns="http://www.w3.org/2000/svg" xmlns:xlink="http://www.w3.org/1999/xlink" width="88" zoomAndPan="magnify" viewBox="0 0 66 30.000001" height="40" preserveAspectRatio="xMidYMid meet" version="1.0"><defs><g/></defs><g fill="#000000" fill-opacity="1"><g transform="translate(2.516128, 17.434747)"><g><path d="M 5.640625 -8.75 L 5.640625 -7 L 2.625 -7 L 2.625 -5.265625 L 5.515625 -5.265625 L 5.515625 -3.515625 L 2.625 -3.515625 L 2.625 -1.75 L 5.640625 -1.75 L 5.640625 0 L 0.640625 0 L 0.640625 -8.75 Z M 5.640625 -8.75 "/></g></g></g><g fill="#000000" fill-opacity="1"><g transform="translate(8.141101, 17.434747)"><g><path d="M 0.640625 -3.890625 L 4.046875 -3.890625 L 4.046875 -2.265625 L 0.640625 -2.265625 Z M 0.640625 -3.890625 "/></g></g></g><g fill="#000000" fill-opacity="1"><g transform="translate(12.301459, 17.434747)"><g><path d="M 8.546875 -4.90625 L 8.546875 -3 C 8.328125 -1.957031 7.832031 -1.171875 7.0625 -0.640625 C 6.300781 -0.109375 5.453125 0.15625 4.515625 0.15625 C 3.328125 0.15625 2.316406 -0.285156 1.484375 -1.171875 C 0.660156 -2.054688 0.25 -3.125 0.25 -4.375 C 0.25 -5.644531 0.65625 -6.71875 1.46875 -7.59375 C 2.28125 -8.46875 3.296875 -8.90625 4.515625 -8.90625 C 5.929688 -8.90625 7.050781 -8.410156 7.875 -7.421875 L 6.578125 -5.984375 C 6.109375 -6.734375 5.457031 -7.109375 4.625 -7.109375 C 4.007812 -7.109375 3.484375 -6.835938 3.046875 -6.296875 C 2.609375 -5.765625 2.390625 -5.125 2.390625 -4.375 C 2.390625 -3.625 2.609375 -2.984375 3.046875 -2.453125 C 3.484375 -1.929688 4.007812 -1.671875 4.625 -1.671875 C 5.132812 -1.671875 5.578125 -1.820312 5.953125 -2.125 C 6.335938 -2.4375 6.53125 -2.847656 6.53125 -3.359375 L 4.515625 -3.359375 L 4.515625 -4.90625 Z M 8.546875 -4.90625 "/></g></g></g><g fill="#000000" fill-opacity="1"><g transform="translate(20.569109, 17.434747)"><g><path d="M 0.25 -4.375 C 0.25 -5.644531 0.675781 -6.71875 1.53125 -7.59375 C 2.394531 -8.46875 3.4375 -8.90625 4.65625 -8.90625 C 5.882812 -8.90625 6.925781 -8.46875 7.78125 -7.59375 C 8.632812 -6.726562 9.0625 -5.65625 9.0625 -4.375 C 9.0625 -3.101562 8.640625 -2.03125 7.796875 -1.15625 C 6.953125 -0.28125 5.90625 0.15625 4.65625 0.15625 C 3.375 0.15625 2.316406 -0.273438 1.484375 -1.140625 C 0.660156 -2.003906 0.25 -3.082031 0.25 -4.375 Z M 2.390625 -4.375 C 2.390625 -3.914062 2.460938 -3.5 2.609375 -3.125 C 2.753906 -2.75 3.003906 -2.425781 3.359375 -2.15625 C 3.710938 -1.894531 4.144531 -1.765625 4.65625 -1.765625 C 5.394531 -1.765625 5.953125 -2.019531 6.328125 -2.53125 C 6.710938 -3.039062 6.90625 -3.65625 6.90625 -4.375 C 6.90625 -5.09375 6.710938 -5.707031 6.328125 -6.21875 C 5.941406 -6.726562 5.382812 -6.984375 4.65625 -6.984375 C 3.9375 -6.984375 3.378906 -6.726562 2.984375 -6.21875 C 2.585938 -5.707031 2.390625 -5.09375 2.390625 -4.375 Z M 2.390625 -4.375 "/></g></g></g><g fill="#000000" fill-opacity="1"><g transform="translate(29.34619, 17.434747)"><g><path d="M 0.25 -4.375 C 0.25 -5.644531 0.675781 -6.71875 1.53125 -7.59375 C 2.394531 -8.46875 3.4375 -8.90625 4.65625 -8.90625 C 5.882812 -8.90625 6.925781 -8.46875 7.78125 -7.59375 C 8.632812 -6.726562 9.0625 -5.65625 9.0625 -4.375 C 9.0625 -3.101562 8.640625 -2.03125 7.796875 -1.15625 C 6.953125 -0.28125 5.90625 0.15625 4.65625 0.15625 C 3.375 0.15625 2.316406 -0.273438 1.484375 -1.140625 C 0.660156 -2.003906 0.25 -3.082031 0.25 -4.375 Z M 2.390625 -4.375 C 2.390625 -3.914062 2.460938 -3.5 2.609375 -3.125 C 2.753906 -2.75 3.003906 -2.425781 3.359375 -2.15625 C 3.710938 -1.894531 4.144531 -1.765625 4.65625 -1.765625 C 5.394531 -1.765625 5.953125 -2.019531 6.328125 -2.53125 C 6.710938 -3.039062 6.90625 -3.65625 6.90625 -4.375 C 6.90625 -5.09375 6.710938 -5.707031 6.328125 -6.21875 C 5.941406 -6.726562 5.382812 -6.984375 4.65625 -6.984375 C 3.9375 -6.984375 3.378906 -6.726562 2.984375 -6.21875 C 2.585938 -5.707031 2.390625 -5.09375 2.390625 -4.375 Z M 2.390625 -4.375 "/></g></g></g><g fill="#000000" fill-opacity="1"><g transform="translate(38.12327, 17.434747)"><g><path d="M 0.640625 -8.75 L 3.171875 -8.75 C 4.390625 -8.75 5.425781 -8.332031 6.28125 -7.5 C 7.144531 -6.675781 7.578125 -5.632812 7.578125 -4.375 C 7.578125 -3.125 7.144531 -2.082031 6.28125 -1.25 C 5.425781 -0.414062 4.390625 0 3.171875 0 L 0.640625 0 Z M 2.625 -1.78125 L 2.9375 -1.78125 C 3.664062 -1.78125 4.257812 -2.023438 4.71875 -2.515625 C 5.1875 -3.003906 5.425781 -3.625 5.4375 -4.375 C 5.4375 -5.113281 5.203125 -5.726562 4.734375 -6.21875 C 4.273438 -6.71875 3.675781 -6.96875 2.9375 -6.96875 L 2.625 -6.96875 Z M 2.625 -1.78125 "/></g></g></g><g fill="#000000" fill-opacity="1"><g transform="translate(45.425122, 17.434747)"><g><path d="M 5.640625 -8.75 L 5.640625 -7 L 2.625 -7 L 2.625 -5.265625 L 5.515625 -5.265625 L 5.515625 -3.515625 L 2.625 -3.515625 L 2.625 -1.75 L 5.640625 -1.75 L 5.640625 0 L 0.640625 0 L 0.640625 -8.75 Z M 5.640625 -8.75 "/></g></g></g><g fill="#000000" fill-opacity="1"><g transform="translate(51.050096, 17.434747)"><g><path d="M 3.859375 -8.90625 C 4.335938 -8.90625 4.800781 -8.835938 5.25 -8.703125 C 5.707031 -8.566406 6.046875 -8.429688 6.265625 -8.296875 L 6.578125 -8.078125 L 5.765625 -6.5 C 5.703125 -6.539062 5.613281 -6.59375 5.5 -6.65625 C 5.394531 -6.726562 5.1875 -6.816406 4.875 -6.921875 C 4.5625 -7.035156 4.269531 -7.09375 4 -7.09375 C 3.664062 -7.09375 3.40625 -7.019531 3.21875 -6.875 C 3.039062 -6.738281 2.953125 -6.550781 2.953125 -6.3125 C 2.953125 -6.1875 2.992188 -6.070312 3.078125 -5.96875 C 3.171875 -5.875 3.316406 -5.765625 3.515625 -5.640625 C 3.722656 -5.523438 3.90625 -5.429688 4.0625 -5.359375 C 4.21875 -5.296875 4.457031 -5.191406 4.78125 -5.046875 C 5.351562 -4.804688 5.835938 -4.476562 6.234375 -4.0625 C 6.628906 -3.65625 6.828125 -3.1875 6.828125 -2.65625 C 6.828125 -2.15625 6.738281 -1.71875 6.5625 -1.34375 C 6.382812 -0.96875 6.132812 -0.675781 5.8125 -0.46875 C 5.5 -0.257812 5.148438 -0.101562 4.765625 0 C 4.390625 0.101562 3.976562 0.15625 3.53125 0.15625 C 3.144531 0.15625 2.769531 0.113281 2.40625 0.03125 C 2.039062 -0.0390625 1.734375 -0.132812 1.484375 -0.25 C 1.234375 -0.363281 1.007812 -0.476562 0.8125 -0.59375 C 0.613281 -0.707031 0.46875 -0.800781 0.375 -0.875 L 0.25 -1 L 1.234375 -2.671875 C 1.328125 -2.597656 1.445312 -2.503906 1.59375 -2.390625 C 1.738281 -2.285156 2 -2.140625 2.375 -1.953125 C 2.757812 -1.773438 3.097656 -1.6875 3.390625 -1.6875 C 4.222656 -1.6875 4.640625 -1.972656 4.640625 -2.546875 C 4.640625 -2.671875 4.609375 -2.78125 4.546875 -2.875 C 4.492188 -2.976562 4.390625 -3.082031 4.234375 -3.1875 C 4.085938 -3.289062 3.953125 -3.367188 3.828125 -3.421875 C 3.710938 -3.484375 3.519531 -3.578125 3.25 -3.703125 C 2.988281 -3.828125 2.796875 -3.921875 2.671875 -3.984375 C 2.140625 -4.242188 1.726562 -4.570312 1.4375 -4.96875 C 1.15625 -5.363281 1.015625 -5.785156 1.015625 -6.234375 C 1.015625 -7.023438 1.300781 -7.664062 1.875 -8.15625 C 2.457031 -8.65625 3.117188 -8.90625 3.859375 -8.90625 Z M 3.859375 -8.90625 "/></g></g></g><g fill="#ff914d" fill-opacity="1"><g transform="translate(5.877758, 20.023221)"><g><path d="M 0.140625 -1.9375 L 0.703125 -1.9375 C 0.972656 -1.9375 1.203125 -1.84375 1.390625 -1.65625 C 1.578125 -1.46875 1.671875 -1.238281 1.671875 -0.96875 C 1.671875 -0.6875 1.578125 -0.453125 1.390625 -0.265625 C 1.203125 -0.0859375 0.972656 0 0.703125 0 L 0.140625 0 Z M 0.578125 -0.390625 L 0.65625 -0.390625 C 0.8125 -0.390625 0.941406 -0.441406 1.046875 -0.546875 C 1.148438 -0.660156 1.203125 -0.800781 1.203125 -0.96875 C 1.203125 -1.132812 1.148438 -1.269531 1.046875 -1.375 C 0.941406 -1.488281 0.8125 -1.546875 0.65625 -1.546875 L 0.578125 -1.546875 Z M 0.578125 -0.390625 "/></g></g></g><g fill="#ff914d" fill-opacity="1"><g transform="translate(7.728771, 20.023221)"><g><path d="M 0.578125 -1.9375 L 0.578125 0 L 0.140625 0 L 0.140625 -1.9375 Z M 0.578125 -1.9375 "/></g></g></g><g fill="#ff914d" fill-opacity="1"><g transform="translate(8.569744, 20.023221)"><g><path d="M 1.890625 -1.078125 L 1.890625 -0.65625 C 1.835938 -0.425781 1.726562 -0.253906 1.5625 -0.140625 C 1.394531 -0.0234375 1.207031 0.03125 1 0.03125 C 0.738281 0.03125 0.515625 -0.0625 0.328125 -0.25 C 0.140625 -0.445312 0.046875 -0.6875 0.046875 -0.96875 C 0.046875 -1.25 0.132812 -1.484375 0.3125 -1.671875 C 0.5 -1.867188 0.726562 -1.96875 1 -1.96875 C 1.3125 -1.96875 1.554688 -1.859375 1.734375 -1.640625 L 1.453125 -1.328125 C 1.347656 -1.484375 1.203125 -1.5625 1.015625 -1.5625 C 0.878906 -1.5625 0.765625 -1.503906 0.671875 -1.390625 C 0.578125 -1.273438 0.53125 -1.132812 0.53125 -0.96875 C 0.53125 -0.800781 0.578125 -0.660156 0.671875 -0.546875 C 0.765625 -0.429688 0.878906 -0.375 1.015625 -0.375 C 1.128906 -0.375 1.226562 -0.40625 1.3125 -0.46875 C 1.394531 -0.539062 1.4375 -0.632812 1.4375 -0.75 L 1 -0.75 L 1 -1.078125 Z M 1.890625 -1.078125 "/></g></g></g><g fill="#ff914d" fill-opacity="1"><g transform="translate(10.634511, 20.023221)"><g><path d="M 0.578125 -1.9375 L 0.578125 0 L 0.140625 0 L 0.140625 -1.9375 Z M 0.578125 -1.9375 "/></g></g></g><g fill="#ff914d" fill-opacity="1"><g transform="translate(11.475484, 20.023221)"><g><path d="M 0.015625 -1.546875 L 0.015625 -1.9375 L 1.375 -1.9375 L 1.375 -1.546875 L 0.921875 -1.546875 L 0.921875 0 L 0.484375 0 L 0.484375 -1.546875 Z M 0.015625 -1.546875 "/></g></g></g><g fill="#ff914d" fill-opacity="1"><g transform="translate(12.99295, 20.023221)"><g><path d="M 1.125 -1.9375 L 1.90625 0 L 1.421875 0 L 1.28125 -0.390625 L 0.546875 -0.390625 L 0.40625 0 L -0.0625 0 L 0.71875 -1.9375 Z M 1.140625 -0.765625 L 0.921875 -1.328125 L 0.703125 -0.765625 Z M 1.140625 -0.765625 "/></g></g></g><g fill="#ff914d" fill-opacity="1"><g transform="translate(14.952013, 20.023221)"><g><path d="M 0.578125 -1.9375 L 0.578125 -0.390625 L 1.25 -0.390625 L 1.25 0 L 0.140625 0 L 0.140625 -1.9375 Z M 0.578125 -1.9375 "/></g></g></g><g fill="#ff914d" fill-opacity="1"><g transform="translate(16.396662, 20.023221)"><g/></g></g><g fill="#ff914d" fill-opacity="1"><g transform="translate(17.155422, 20.023221)"><g><path d="M 1.125 -1.9375 L 1.90625 0 L 1.421875 0 L 1.28125 -0.390625 L 0.546875 -0.390625 L 0.40625 0 L -0.0625 0 L 0.71875 -1.9375 Z M 1.140625 -0.765625 L 0.921875 -1.328125 L 0.703125 -0.765625 Z M 1.140625 -0.765625 "/></g></g></g><g fill="#ff914d" fill-opacity="1"><g transform="translate(19.114485, 20.023221)"><g><path d="M 1.890625 -1.078125 L 1.890625 -0.65625 C 1.835938 -0.425781 1.726562 -0.253906 1.5625 -0.140625 C 1.394531 -0.0234375 1.207031 0.03125 1 0.03125 C 0.738281 0.03125 0.515625 -0.0625 0.328125 -0.25 C 0.140625 -0.445312 0.046875 -0.6875 0.046875 -0.96875 C 0.046875 -1.25 0.132812 -1.484375 0.3125 -1.671875 C 0.5 -1.867188 0.726562 -1.96875 1 -1.96875 C 1.3125 -1.96875 1.554688 -1.859375 1.734375 -1.640625 L 1.453125 -1.328125 C 1.347656 -1.484375 1.203125 -1.5625 1.015625 -1.5625 C 0.878906 -1.5625 0.765625 -1.503906 0.671875 -1.390625 C 0.578125 -1.273438 0.53125 -1.132812 0.53125 -0.96875 C 0.53125 -0.800781 0.578125 -0.660156 0.671875 -0.546875 C 0.765625 -0.429688 0.878906 -0.375 1.015625 -0.375 C 1.128906 -0.375 1.226562 -0.40625 1.3125 -0.46875 C 1.394531 -0.539062 1.4375 -0.632812 1.4375 -0.75 L 1 -0.75 L 1 -1.078125 Z M 1.890625 -1.078125 "/></g></g></g><g fill="#ff914d" fill-opacity="1"><g transform="translate(21.179252, 20.023221)"><g><path d="M 1.25 -1.9375 L 1.25 -1.546875 L 0.578125 -1.546875 L 0.578125 -1.15625 L 1.21875 -1.15625 L 1.21875 -0.78125 L 0.578125 -0.78125 L 0.578125 -0.390625 L 1.25 -0.390625 L 1.25 0 L 0.140625 0 L 0.140625 -1.9375 Z M 1.25 -1.9375 "/></g></g></g><g fill="#ff914d" fill-opacity="1"><g transform="translate(22.659133, 20.023221)"><g><path d="M 0.578125 -1.203125 L 0.578125 0 L 0.140625 0 L 0.140625 -1.9375 L 0.578125 -1.9375 L 1.34375 -0.734375 L 1.359375 -0.734375 L 1.359375 -1.9375 L 1.796875 -1.9375 L 1.796875 0 L 1.359375 0 Z M 0.578125 -1.203125 "/></g></g></g><g fill="#ff914d" fill-opacity="1"><g transform="translate(24.716853, 20.023221)"><g><path d="M 1.171875 -0.390625 C 1.234375 -0.390625 1.296875 -0.398438 1.359375 -0.421875 C 1.421875 -0.441406 1.46875 -0.460938 1.5 -0.484375 L 1.546875 -0.515625 L 1.734375 -0.140625 C 1.734375 -0.140625 1.722656 -0.132812 1.703125 -0.125 C 1.691406 -0.113281 1.664062 -0.0976562 1.625 -0.078125 C 1.59375 -0.0546875 1.550781 -0.0351562 1.5 -0.015625 C 1.457031 -0.00390625 1.398438 0.00390625 1.328125 0.015625 C 1.253906 0.0234375 1.175781 0.03125 1.09375 0.03125 C 0.914062 0.03125 0.742188 -0.0078125 0.578125 -0.09375 C 0.421875 -0.1875 0.289062 -0.304688 0.1875 -0.453125 C 0.09375 -0.609375 0.046875 -0.78125 0.046875 -0.96875 C 0.046875 -1.101562 0.078125 -1.234375 0.140625 -1.359375 C 0.203125 -1.484375 0.28125 -1.585938 0.375 -1.671875 C 0.46875 -1.765625 0.578125 -1.835938 0.703125 -1.890625 C 0.835938 -1.941406 0.96875 -1.96875 1.09375 -1.96875 C 1.21875 -1.96875 1.332031 -1.953125 1.4375 -1.921875 C 1.550781 -1.890625 1.628906 -1.859375 1.671875 -1.828125 L 1.734375 -1.796875 L 1.546875 -1.421875 C 1.535156 -1.421875 1.519531 -1.425781 1.5 -1.4375 C 1.476562 -1.457031 1.429688 -1.476562 1.359375 -1.5 C 1.296875 -1.519531 1.234375 -1.53125 1.171875 -1.53125 C 1.066406 -1.53125 0.96875 -1.515625 0.875 -1.484375 C 0.789062 -1.453125 0.722656 -1.40625 0.671875 -1.34375 C 0.628906 -1.289062 0.59375 -1.226562 0.5625 -1.15625 C 0.539062 -1.09375 0.53125 -1.03125 0.53125 -0.96875 C 0.53125 -0.820312 0.582031 -0.6875 0.6875 -0.5625 C 0.800781 -0.445312 0.960938 -0.390625 1.171875 -0.390625 Z M 1.171875 -0.390625 "/></g></g></g><g fill="#ff914d" fill-opacity="1"><g transform="translate(26.603103, 20.023221)"><g><path d="M -0.0625 -1.9375 L 0.453125 -1.9375 L 0.859375 -1.3125 L 1.265625 -1.9375 L 1.796875 -1.9375 L 1.078125 -0.859375 L 1.078125 0 L 0.640625 0 L 0.640625 -0.859375 Z M -0.0625 -1.9375 "/></g></g></g></svg>