<svg xmlns="http://www.w3.org/2000/svg" xmlns:xlink="http://www.w3.org/1999/xlink" width="1920" zoomAndPan="magnify" viewBox="0 0 1440 809.999993" height="1080" preserveAspectRatio="xMidYMid meet" version="1.0"><defs><g/></defs><g fill="#000000" fill-opacity="1"><g transform="translate(514.469572, 415.455724)"><g><path d="M 41.015625 -63.609375 L 41.015625 -50.875 L 19.125 -50.875 L 19.125 -38.234375 L 40.09375 -38.234375 L 40.09375 -25.515625 L 19.125 -25.515625 L 19.125 -12.71875 L 41.015625 -12.71875 L 41.015625 0 L 4.625 0 L 4.625 -63.609375 Z M 41.015625 -63.609375 "/></g></g></g><g fill="#000000" fill-opacity="1"><g transform="translate(555.328498, 415.455724)"><g><path d="M 4.625 -28.21875 L 29.453125 -28.21875 L 29.453125 -16.421875 L 4.625 -16.421875 Z M 4.625 -28.21875 "/></g></g></g><g fill="#000000" fill-opacity="1"><g transform="translate(585.548689, 415.455724)"><g><path d="M 62.140625 -35.625 L 62.140625 -21.8125 C 60.492188 -14.257812 56.894531 -8.539062 51.34375 -4.65625 C 45.789062 -0.78125 39.597656 1.15625 32.765625 1.15625 C 24.179688 1.15625 16.867188 -2.050781 10.828125 -8.46875 C 4.785156 -14.894531 1.765625 -22.660156 1.765625 -31.765625 C 1.765625 -41.015625 4.71875 -48.828125 10.625 -55.203125 C 16.539062 -61.578125 23.921875 -64.765625 32.765625 -64.765625 C 43.097656 -64.765625 51.269531 -61.140625 57.28125 -53.890625 L 47.796875 -43.484375 C 44.398438 -48.929688 39.671875 -51.65625 33.609375 -51.65625 C 29.140625 -51.65625 25.320312 -49.710938 22.15625 -45.828125 C 19 -41.953125 17.421875 -37.265625 17.421875 -31.765625 C 17.421875 -26.367188 19 -21.753906 22.15625 -17.921875 C 25.320312 -14.097656 29.140625 -12.1875 33.609375 -12.1875 C 37.304688 -12.1875 40.53125 -13.300781 43.28125 -15.53125 C 46.03125 -17.769531 47.40625 -20.738281 47.40625 -24.4375 L 32.765625 -24.4375 L 32.765625 -35.625 Z M 62.140625 -35.625 "/></g></g></g><g fill="#000000" fill-opacity="1"><g transform="translate(645.603603, 415.455724)"><g><path d="M 1.765625 -31.84375 C 1.765625 -41.039062 4.898438 -48.828125 11.171875 -55.203125 C 17.441406 -61.578125 25 -64.765625 33.84375 -64.765625 C 42.738281 -64.765625 50.296875 -61.585938 56.515625 -55.234375 C 62.734375 -48.890625 65.84375 -41.09375 65.84375 -31.84375 C 65.84375 -22.539062 62.78125 -14.710938 56.65625 -8.359375 C 50.539062 -2.015625 42.9375 1.15625 33.84375 1.15625 C 24.539062 1.15625 16.867188 -1.988281 10.828125 -8.28125 C 4.785156 -14.582031 1.765625 -22.4375 1.765625 -31.84375 Z M 17.421875 -31.84375 C 17.421875 -28.5 17.929688 -25.453125 18.953125 -22.703125 C 19.984375 -19.953125 21.785156 -17.625 24.359375 -15.71875 C 26.929688 -13.820312 30.09375 -12.875 33.84375 -12.875 C 39.238281 -12.875 43.3125 -14.722656 46.0625 -18.421875 C 48.8125 -22.117188 50.1875 -26.59375 50.1875 -31.84375 C 50.1875 -37.03125 48.785156 -41.488281 45.984375 -45.21875 C 43.179688 -48.945312 39.132812 -50.8125 33.84375 -50.8125 C 28.601562 -50.8125 24.554688 -48.945312 21.703125 -45.21875 C 18.847656 -41.488281 17.421875 -37.03125 17.421875 -31.84375 Z M 17.421875 -31.84375 "/></g></g></g><g fill="#000000" fill-opacity="1"><g transform="translate(709.358946, 415.455724)"><g><path d="M 1.765625 -31.84375 C 1.765625 -41.039062 4.898438 -48.828125 11.171875 -55.203125 C 17.441406 -61.578125 25 -64.765625 33.84375 -64.765625 C 42.738281 -64.765625 50.296875 -61.585938 56.515625 -55.234375 C 62.734375 -48.890625 65.84375 -41.09375 65.84375 -31.84375 C 65.84375 -22.539062 62.78125 -14.710938 56.65625 -8.359375 C 50.539062 -2.015625 42.9375 1.15625 33.84375 1.15625 C 24.539062 1.15625 16.867188 -1.988281 10.828125 -8.28125 C 4.785156 -14.582031 1.765625 -22.4375 1.765625 -31.84375 Z M 17.421875 -31.84375 C 17.421875 -28.5 17.929688 -25.453125 18.953125 -22.703125 C 19.984375 -19.953125 21.785156 -17.625 24.359375 -15.71875 C 26.929688 -13.820312 30.09375 -12.875 33.84375 -12.875 C 39.238281 -12.875 43.3125 -14.722656 46.0625 -18.421875 C 48.8125 -22.117188 50.1875 -26.59375 50.1875 -31.84375 C 50.1875 -37.03125 48.785156 -41.488281 45.984375 -45.21875 C 43.179688 -48.945312 39.132812 -50.8125 33.84375 -50.8125 C 28.601562 -50.8125 24.554688 -48.945312 21.703125 -45.21875 C 18.847656 -41.488281 17.421875 -37.03125 17.421875 -31.84375 Z M 17.421875 -31.84375 "/></g></g></g><g fill="#000000" fill-opacity="1"><g transform="translate(773.114289, 415.455724)"><g><path d="M 4.625 -63.609375 L 23.046875 -63.609375 C 31.890625 -63.609375 39.445312 -60.585938 45.71875 -54.546875 C 51.988281 -48.503906 55.125 -40.9375 55.125 -31.84375 C 55.125 -22.6875 52 -15.085938 45.75 -9.046875 C 39.507812 -3.015625 31.941406 0 23.046875 0 L 4.625 0 Z M 19.125 -12.953125 L 21.359375 -12.953125 C 26.648438 -12.953125 30.976562 -14.738281 34.34375 -18.3125 C 37.707031 -21.882812 39.414062 -26.367188 39.46875 -31.765625 C 39.46875 -37.160156 37.785156 -41.65625 34.421875 -45.25 C 31.054688 -48.851562 26.703125 -50.65625 21.359375 -50.65625 L 19.125 -50.65625 Z M 19.125 -12.953125 "/></g></g></g><g fill="#000000" fill-opacity="1"><g transform="translate(826.153796, 415.455724)"><g><path d="M 41.015625 -63.609375 L 41.015625 -50.875 L 19.125 -50.875 L 19.125 -38.234375 L 40.09375 -38.234375 L 40.09375 -25.515625 L 19.125 -25.515625 L 19.125 -12.71875 L 41.015625 -12.71875 L 41.015625 0 L 4.625 0 L 4.625 -63.609375 Z M 41.015625 -63.609375 "/></g></g></g><g fill="#000000" fill-opacity="1"><g transform="translate(867.01273, 415.455724)"><g><path d="M 28.0625 -64.765625 C 31.507812 -64.765625 34.875 -64.257812 38.15625 -63.25 C 41.445312 -62.25 43.890625 -61.257812 45.484375 -60.28125 L 47.796875 -58.75 L 41.9375 -47.1875 C 41.476562 -47.488281 40.835938 -47.882812 40.015625 -48.375 C 39.191406 -48.863281 37.648438 -49.519531 35.390625 -50.34375 C 33.128906 -51.164062 31.019531 -51.578125 29.0625 -51.578125 C 26.644531 -51.578125 24.78125 -51.0625 23.46875 -50.03125 C 22.164062 -49 21.515625 -47.613281 21.515625 -45.875 C 21.515625 -45 21.820312 -44.1875 22.4375 -43.4375 C 23.050781 -42.695312 24.101562 -41.898438 25.59375 -41.046875 C 27.082031 -40.203125 28.390625 -39.519531 29.515625 -39 C 30.648438 -38.488281 32.398438 -37.722656 34.765625 -36.703125 C 38.878906 -34.953125 42.382812 -32.570312 45.28125 -29.5625 C 48.1875 -26.5625 49.640625 -23.15625 49.640625 -19.34375 C 49.640625 -15.695312 48.984375 -12.507812 47.671875 -9.78125 C 46.367188 -7.0625 44.570312 -4.929688 42.28125 -3.390625 C 40 -1.847656 37.46875 -0.707031 34.6875 0.03125 C 31.914062 0.78125 28.910156 1.15625 25.671875 1.15625 C 22.898438 1.15625 20.175781 0.867188 17.5 0.296875 C 14.820312 -0.265625 12.582031 -0.96875 10.78125 -1.8125 C 8.988281 -2.65625 7.375 -3.488281 5.9375 -4.3125 C 4.5 -5.132812 3.445312 -5.832031 2.78125 -6.40625 L 1.765625 -7.25 L 9.015625 -19.421875 C 9.628906 -18.910156 10.476562 -18.253906 11.5625 -17.453125 C 12.644531 -16.660156 14.5625 -15.597656 17.3125 -14.265625 C 20.0625 -12.929688 22.488281 -12.265625 24.59375 -12.265625 C 30.707031 -12.265625 33.765625 -14.34375 33.765625 -18.5 C 33.765625 -19.375 33.546875 -20.179688 33.109375 -20.921875 C 32.671875 -21.671875 31.898438 -22.414062 30.796875 -23.15625 C 29.691406 -23.90625 28.710938 -24.5 27.859375 -24.9375 C 27.015625 -25.375 25.628906 -26.039062 23.703125 -26.9375 C 21.773438 -27.84375 20.347656 -28.523438 19.421875 -28.984375 C 15.566406 -30.890625 12.585938 -33.265625 10.484375 -36.109375 C 8.378906 -38.960938 7.328125 -42.035156 7.328125 -45.328125 C 7.328125 -51.035156 9.429688 -55.703125 13.640625 -59.328125 C 17.859375 -62.953125 22.664062 -64.765625 28.0625 -64.765625 Z M 28.0625 -64.765625 "/></g></g></g><g fill="#ff914d" fill-opacity="1"><g transform="translate(485.999982, 448.460493)"><g><path d="M 2.296875 -31.484375 L 11.40625 -31.484375 C 15.78125 -31.484375 19.519531 -29.988281 22.625 -27 C 25.726562 -24.007812 27.28125 -20.265625 27.28125 -15.765625 C 27.28125 -11.234375 25.734375 -7.472656 22.640625 -4.484375 C 19.554688 -1.492188 15.8125 0 11.40625 0 L 2.296875 0 Z M 9.46875 -6.40625 L 10.5625 -6.40625 C 13.1875 -6.40625 15.332031 -7.289062 17 -9.0625 C 18.664062 -10.832031 19.507812 -13.050781 19.53125 -15.71875 C 19.53125 -18.394531 18.695312 -20.617188 17.03125 -22.390625 C 15.363281 -24.171875 13.207031 -25.0625 10.5625 -25.0625 L 9.46875 -25.0625 Z M 9.46875 -6.40625 "/></g></g></g><g fill="#ff914d" fill-opacity="1"><g transform="translate(516.069515, 448.460493)"><g><path d="M 9.46875 -31.484375 L 9.46875 0 L 2.296875 0 L 2.296875 -31.484375 Z M 9.46875 -31.484375 "/></g></g></g><g fill="#ff914d" fill-opacity="1"><g transform="translate(529.73055, 448.460493)"><g><path d="M 30.75 -17.625 L 30.75 -10.796875 C 29.9375 -7.054688 28.15625 -4.222656 25.40625 -2.296875 C 22.664062 -0.378906 19.601562 0.578125 16.21875 0.578125 C 11.96875 0.578125 8.347656 -1.007812 5.359375 -4.1875 C 2.367188 -7.375 0.875 -11.21875 0.875 -15.71875 C 0.875 -20.300781 2.335938 -24.164062 5.265625 -27.3125 C 8.191406 -30.46875 11.84375 -32.046875 16.21875 -32.046875 C 21.332031 -32.046875 25.375 -30.253906 28.34375 -26.671875 L 23.65625 -21.515625 C 21.976562 -24.210938 19.640625 -25.5625 16.640625 -25.5625 C 14.421875 -25.5625 12.53125 -24.597656 10.96875 -22.671875 C 9.40625 -20.753906 8.625 -18.4375 8.625 -15.71875 C 8.625 -13.050781 9.40625 -10.769531 10.96875 -8.875 C 12.53125 -6.976562 14.421875 -6.03125 16.640625 -6.03125 C 18.472656 -6.03125 20.066406 -6.582031 21.421875 -7.6875 C 22.785156 -8.789062 23.46875 -10.257812 23.46875 -12.09375 L 16.21875 -12.09375 L 16.21875 -17.625 Z M 30.75 -17.625 "/></g></g></g><g fill="#ff914d" fill-opacity="1"><g transform="translate(563.27259, 448.460493)"><g><path d="M 9.46875 -31.484375 L 9.46875 0 L 2.296875 0 L 2.296875 -31.484375 Z M 9.46875 -31.484375 "/></g></g></g><g fill="#ff914d" fill-opacity="1"><g transform="translate(576.933625, 448.460493)"><g><path d="M 0.3125 -25.1875 L 0.3125 -31.484375 L 22.4375 -31.484375 L 22.4375 -25.1875 L 14.953125 -25.1875 L 14.953125 0 L 7.78125 0 L 7.78125 -25.1875 Z M 0.3125 -25.1875 "/></g></g></g><g fill="#ff914d" fill-opacity="1"><g transform="translate(601.584536, 448.460493)"><g><path d="M 18.28125 -31.484375 L 30.984375 0 L 23.28125 0 L 20.953125 -6.296875 L 8.96875 -6.296875 L 6.640625 0 L -1.0625 0 L 11.640625 -31.484375 Z M 18.5 -12.59375 L 15 -21.75 L 14.921875 -21.75 L 11.40625 -12.59375 Z M 18.5 -12.59375 "/></g></g></g><g fill="#ff914d" fill-opacity="1"><g transform="translate(633.409386, 448.460493)"><g><path d="M 9.46875 -31.484375 L 9.46875 -6.296875 L 20.296875 -6.296875 L 20.296875 0 L 2.296875 0 L 2.296875 -31.484375 Z M 9.46875 -31.484375 "/></g></g></g><g fill="#ff914d" fill-opacity="1"><g transform="translate(656.877337, 448.460493)"><g/></g></g><g fill="#ff914d" fill-opacity="1"><g transform="translate(669.202756, 448.460493)"><g><path d="M 18.28125 -31.484375 L 30.984375 0 L 23.28125 0 L 20.953125 -6.296875 L 8.96875 -6.296875 L 6.640625 0 L -1.0625 0 L 11.640625 -31.484375 Z M 18.5 -12.59375 L 15 -21.75 L 14.921875 -21.75 L 11.40625 -12.59375 Z M 18.5 -12.59375 "/></g></g></g><g fill="#ff914d" fill-opacity="1"><g transform="translate(701.027607, 448.460493)"><g><path d="M 30.75 -17.625 L 30.75 -10.796875 C 29.9375 -7.054688 28.15625 -4.222656 25.40625 -2.296875 C 22.664062 -0.378906 19.601562 0.578125 16.21875 0.578125 C 11.96875 0.578125 8.347656 -1.007812 5.359375 -4.1875 C 2.367188 -7.375 0.875 -11.21875 0.875 -15.71875 C 0.875 -20.300781 2.335938 -24.164062 5.265625 -27.3125 C 8.191406 -30.46875 11.84375 -32.046875 16.21875 -32.046875 C 21.332031 -32.046875 25.375 -30.253906 28.34375 -26.671875 L 23.65625 -21.515625 C 21.976562 -24.210938 19.640625 -25.5625 16.640625 -25.5625 C 14.421875 -25.5625 12.53125 -24.597656 10.96875 -22.671875 C 9.40625 -20.753906 8.625 -18.4375 8.625 -15.71875 C 8.625 -13.050781 9.40625 -10.769531 10.96875 -8.875 C 12.53125 -6.976562 14.421875 -6.03125 16.640625 -6.03125 C 18.472656 -6.03125 20.066406 -6.582031 21.421875 -7.6875 C 22.785156 -8.789062 23.46875 -10.257812 23.46875 -12.09375 L 16.21875 -12.09375 L 16.21875 -17.625 Z M 30.75 -17.625 "/></g></g></g><g fill="#ff914d" fill-opacity="1"><g transform="translate(734.569641, 448.460493)"><g><path d="M 20.296875 -31.484375 L 20.296875 -25.1875 L 9.46875 -25.1875 L 9.46875 -18.921875 L 19.84375 -18.921875 L 19.84375 -12.625 L 9.46875 -12.625 L 9.46875 -6.296875 L 20.296875 -6.296875 L 20.296875 0 L 2.296875 0 L 2.296875 -31.484375 Z M 20.296875 -31.484375 "/></g></g></g><g fill="#ff914d" fill-opacity="1"><g transform="translate(758.610003, 448.460493)"><g><path d="M 9.46875 -19.53125 L 9.46875 0 L 2.296875 0 L 2.296875 -31.484375 L 9.46875 -31.484375 L 21.984375 -11.9375 L 22.046875 -11.9375 L 22.046875 -31.484375 L 29.234375 -31.484375 L 29.234375 0 L 22.046875 0 L 9.546875 -19.53125 Z M 9.46875 -19.53125 "/></g></g></g><g fill="#ff914d" fill-opacity="1"><g transform="translate(792.037527, 448.460493)"><g><path d="M 19.046875 -6.484375 C 20.140625 -6.484375 21.195312 -6.648438 22.21875 -6.984375 C 23.25 -7.316406 24.007812 -7.632812 24.5 -7.9375 L 25.21875 -8.4375 L 28.28125 -2.328125 C 28.175781 -2.253906 28.035156 -2.148438 27.859375 -2.015625 C 27.679688 -1.890625 27.265625 -1.65625 26.609375 -1.3125 C 25.960938 -0.96875 25.269531 -0.664062 24.53125 -0.40625 C 23.789062 -0.15625 22.820312 0.0664062 21.625 0.265625 C 20.4375 0.472656 19.207031 0.578125 17.9375 0.578125 C 15.007812 0.578125 12.234375 -0.140625 9.609375 -1.578125 C 6.992188 -3.015625 4.882812 -4.992188 3.28125 -7.515625 C 1.675781 -10.035156 0.875 -12.757812 0.875 -15.6875 C 0.875 -17.894531 1.34375 -20.015625 2.28125 -22.046875 C 3.226562 -24.085938 4.484375 -25.832031 6.046875 -27.28125 C 7.609375 -28.726562 9.429688 -29.882812 11.515625 -30.75 C 13.609375 -31.613281 15.75 -32.046875 17.9375 -32.046875 C 19.96875 -32.046875 21.84375 -31.800781 23.5625 -31.3125 C 25.28125 -30.832031 26.492188 -30.351562 27.203125 -29.875 L 28.28125 -29.15625 L 25.21875 -23.046875 C 25.039062 -23.203125 24.773438 -23.382812 24.421875 -23.59375 C 24.066406 -23.8125 23.351562 -24.097656 22.28125 -24.453125 C 21.21875 -24.816406 20.140625 -25 19.046875 -25 C 17.316406 -25 15.765625 -24.71875 14.390625 -24.15625 C 13.015625 -23.59375 11.925781 -22.851562 11.125 -21.9375 C 10.320312 -21.019531 9.707031 -20.035156 9.28125 -18.984375 C 8.863281 -17.929688 8.65625 -16.859375 8.65625 -15.765625 C 8.65625 -13.367188 9.550781 -11.222656 11.34375 -9.328125 C 13.144531 -7.429688 15.710938 -6.484375 19.046875 -6.484375 Z M 19.046875 -6.484375 "/></g></g></g><g fill="#ff914d" fill-opacity="1"><g transform="translate(822.679417, 448.460493)"><g><path d="M -1.140625 -31.484375 L 7.484375 -31.484375 L 14.046875 -21.40625 L 20.609375 -31.484375 L 29.234375 -31.484375 L 17.625 -14.125 L 17.625 0 L 10.453125 0 L 10.453125 -14.125 Z M -1.140625 -31.484375 "/></g></g></g></svg>